<?xml version="1.0" standalone="no"?>
<!DOCTYPE svg PUBLIC "-//W3C//DTD SVG 20010904//EN"
 "http://www.w3.org/TR/2001/REC-SVG-20010904/DTD/svg10.dtd">
<svg version="1.0" xmlns="http://www.w3.org/2000/svg"
 width="200.000000pt" height="200.000000pt" viewBox="0 0 200.000000 200.000000"
 preserveAspectRatio="xMidYMid meet">
<metadata>
Created by potrace 1.11, written by Peter Selinger 2001-2013
</metadata>
<g transform="translate(0.000000,200.000000) scale(0.100000,-0.100000)"
fill="#000000" stroke="none">
<path d="M63 1294 c-17 -9 -39 -31 -47 -49 -21 -43 -22 -192 -2 -239 28 -67
22 -66 411 -67 244 0 360 -4 384 -12 49 -17 72 -53 78 -126 5 -52 10 -65 35
-86 27 -23 38 -25 118 -25 49 0 101 5 115 12 36 16 55 57 55 117 0 41 -5 56
-28 82 -28 31 -32 32 -130 38 -94 6 -104 8 -129 34 -27 26 -28 33 -33 141 -4
96 -8 119 -26 143 -39 52 -43 53 -419 53 -298 0 -355 -3 -382 -16z m145 -90
c12 -4 22 -14 22 -24 0 -15 -6 -17 -40 -13 -52 7 -51 -7 3 -32 47 -22 59 -52
31 -79 -23 -24 -107 -19 -112 7 -3 15 3 17 39 15 55 -4 61 15 9 31 -51 15 -66
54 -30 83 23 19 41 22 78 12z m102 -44 c0 -36 5 -55 20 -70 36 -36 57 -12 62
75 2 28 8 40 18 40 11 0 16 -14 18 -56 4 -72 -22 -109 -75 -109 -58 0 -73 22
-73 102 0 54 3 68 15 68 11 0 15 -12 15 -50z m265 38 c30 -13 41 -47 26 -76
-6 -11 -8 -34 -5 -51 5 -25 3 -31 -10 -31 -9 0 -22 11 -28 25 -6 14 -19 25
-30 25 -13 0 -18 -7 -18 -25 0 -18 -5 -25 -20 -25 -18 0 -20 7 -20 78 0 43 3
82 7 85 10 11 70 8 98 -5z m200 -8 c0 -10 -13 -16 -42 -18 -35 -3 -43 -7 -43
-23 0 -14 7 -19 30 -19 20 0 30 -5 30 -15 0 -10 -10 -15 -30 -15 -27 0 -30 -3
-30 -30 0 -23 -4 -30 -20 -30 -18 0 -20 7 -20 78 0 43 3 82 7 86 4 4 32 6 63
4 41 -2 55 -7 55 -18z"/>
<path d="M510 1150 c0 -17 5 -21 28 -18 16 2 27 9 27 18 0 9 -11 16 -27 18
-23 3 -28 -1 -28 -18z"/>
<path d="M1015 1185 c-34 -33 -34 -93 -1 -124 18 -17 33 -22 67 -19 31 2 44 7
44 18 0 10 -12 15 -39 17 -41 1 -56 14 -56 49 0 30 19 44 62 44 39 0 46 8 26
28 -21 21 -77 14 -103 -13z"/>
<path d="M1175 1185 c-34 -33 -34 -93 -2 -123 33 -31 90 -30 122 3 54 53 16
145 -60 145 -25 0 -44 -8 -60 -25z m93 -27 c30 -30 -7 -95 -47 -80 -49 18 -38
92 14 92 12 0 26 -5 33 -12z"/>
<path d="M1350 1124 c0 -76 2 -85 18 -82 12 2 18 16 22 47 l5 45 35 -47 c19
-25 43 -47 53 -47 15 0 17 11 17 86 0 76 -2 85 -17 82 -13 -2 -19 -16 -23 -47
l-5 -44 -38 46 c-57 70 -67 64 -67 -39z"/>
<path d="M1540 1125 l0 -85 66 0 c57 0 65 2 62 18 -2 12 -15 18 -46 20 -50 4
-61 32 -12 32 20 0 30 5 30 15 0 10 -10 15 -30 15 -49 0 -38 28 12 32 31 2 44
8 46 21 3 15 -5 17 -62 17 l-66 0 0 -85z"/>
<path d="M1695 1200 c-4 -6 5 -24 19 -41 27 -32 25 -51 -8 -79 -19 -15 -21
-40 -4 -40 7 0 25 12 41 28 l28 27 21 -27 c20 -29 58 -38 58 -15 0 8 -11 24
-25 37 -14 13 -25 29 -25 35 0 6 11 22 25 35 29 27 31 38 10 46 -8 4 -25 -6
-40 -23 l-25 -28 -25 28 c-25 29 -40 34 -50 17z"/>
<path d="M1862 1193 c2 -10 13 -19 26 -21 20 -3 22 -9 22 -68 0 -57 2 -64 20
-64 18 0 20 7 20 64 0 59 2 65 23 68 12 2 22 10 22 18 0 12 -16 16 -68 18 -62
3 -68 1 -65 -15z"/>
</g>
</svg>
